<svg id="_x33_0" enable-background="new 0 0 64 64" height="512" viewBox="0 0 64 64" width="512" xmlns="http://www.w3.org/2000/svg"><g><g><g><path d="m29 32 2 4h-5l-2-4z" fill="#b27946"/></g><g><path d="m16 32-2 4h-3c-.76 0-1.49.12-2.17.34l2.17-4.34z" fill="#b27946"/></g><g><path d="m38 3v2c0 .55-.45 1-1 1h-1-32-1c-.55 0-1-.45-1-1v-2c0-.55.45-1 1-1h34c.55 0 1 .45 1 1z" fill="#ccd1d9"/></g><g><path d="m4 31v-25h32v25c0 .55-.45 1-1 1h-6-5-8-5-6c-.55 0-1-.45-1-1z" fill="#e6e9ed"/></g><g><circle cx="11" cy="13" fill="#fcd770" r="3"/></g><g><path d="m23.56 20c-.37 0-.72.11-1.02.31l-.38.25 3.36-9.24c.29-.79 1.04-1.32 1.88-1.32h1.71c1.06 0 1.94.83 1.99 1.89l.9 16.11h-5l-1.65-6.6c-.21-.82-.94-1.4-1.79-1.4z" fill="#b4dd7f"/></g><g><path d="m25.35 21.4 1.65 6.6h-9l1.8-5.4c.13-.39.39-.72.73-.95l1.63-1.09.38-.25c.3-.2.65-.31 1.02-.31.85 0 1.58.58 1.79 1.4z" fill="#a0d468"/></g><g><path d="m45.07 44.23c-.64.34-1.07 1.01-1.07 1.77v2c0 1.1-.9 2-2 2h-2c-.55 0-1.05.22-1.41.59-.37.36-.59.86-.59 1.41 0 1.1.9 2 2 2h8c.55 0 1.05.22 1.41.59.37.36.59.86.59 1.41 0 1.1-.9 2-2 2h-2c-.55 0-1.05.22-1.41.59-.37.36-.59.86-.59 1.41 0 .46.16.89.42 1.23-1.38.5-2.87.77-4.42.77h-30c-1.1 0-2.1-.45-2.83-1.17-.72-.73-1.17-1.73-1.17-2.83 0-2.21 1.79-4 4-4h2c.55 0 1.05-.22 1.41-.59.37-.36.59-.86.59-1.41 0-1.1-.9-2-2-2h-1c-1.94 0-3.68-.78-4.95-2.05s-2.05-3.01-2.05-4.95c0-3.11 2.02-5.74 4.83-6.66.68-.22 1.41-.34 2.17-.34h3 12 5 9c1.54 0 3.01.27 4.38.76-.25.91-.38 1.85-.38 2.81 0 1.63.37 3.22 1.07 4.66z" fill="#e6e9ed"/></g><g><circle cx="11" cy="43" fill="#cf9e76" r="3"/></g><g><circle cx="21" cy="55" fill="#969faa" r="3"/></g><g><circle cx="21" cy="43" fill="#b4dd7f" r="3"/></g><g><circle cx="31" cy="43" fill="#ff826e" r="3"/></g><g><circle cx="31" cy="55" fill="#69d6f4" r="3"/></g><g><circle cx="41" cy="43" fill="#fcd770" r="3"/></g><g><path d="m54 17.54v2.38c0 2.7-.15 5.4-.45 8.08h-7.1c-.3-2.68-.45-5.38-.45-8.08v-2.38c0-2.49.22-4.97.67-7.42.44-2.44 1.11-4.84 1.98-7.18.21-.57.75-.94 1.35-.94s1.14.37 1.35.94c1.75 4.67 2.65 9.62 2.65 14.6z" fill="#969faa"/></g><g><path d="m46.45 28h7.1c-.14 1.34-.33 2.67-.55 4h-6c-.22-1.33-.41-2.66-.55-4z" fill="#fcd770"/></g><g><path d="m53.86 33.15c1.39 1.85 2.14 4.1 2.14 6.42 0 .57-.05 1.14-.14 1.7-.1-.26-.25-.49-.45-.68-.36-.37-.86-.59-1.41-.59-1.1 0-2 .9-2 2v6c0 .55-.22 1.05-.59 1.41-.36.37-.86.59-1.41.59-1.1 0-2-.9-2-2v-2c0-.55-.22-1.05-.59-1.41-.36-.37-.86-.59-1.41-.59-.34 0-.65.08-.93.23-.7-1.44-1.07-3.03-1.07-4.66 0-.96.13-1.9.38-2.81.35-1.3.94-2.52 1.76-3.61l.86-1.15h6z" fill="#ecc19c"/></g><g><path d="m60 50c1.1 0 2 .9 2 2 0 .55-.22 1.05-.59 1.41-.36.37-.86.59-1.41.59h-2c-1.1 0-2 .9-2 2 0 .55.22 1.05.59 1.41.36.37.86.59 1.41.59h2c1.1 0 2 .9 2 2 0 .55-.22 1.05-.59 1.41-.36.37-.86.59-1.41.59h-14c-.64 0-1.21-.3-1.58-.77-.26-.34-.42-.77-.42-1.23 0-.55.22-1.05.59-1.41.36-.37.86-.59 1.41-.59h2c1.1 0 2-.9 2-2 0-.55-.22-1.05-.59-1.41-.36-.37-.86-.59-1.41-.59h-8c-1.1 0-2-.9-2-2 0-.55.22-1.05.59-1.41.36-.37.86-.59 1.41-.59h2c1.1 0 2-.9 2-2v-2c0-.76.43-1.43 1.07-1.77.28-.15.59-.23.93-.23.55 0 1.05.22 1.41.59.37.36.59.86.59 1.41v2c0 1.1.9 2 2 2 .55 0 1.05-.22 1.41-.59.37-.36.59-.86.59-1.41v-6c0-1.1.9-2 2-2 .55 0 1.05.22 1.41.59.2.19.35.42.45.68.09.23.14.47.14.73v6c0 1.1.9 2 2 2z" fill="#69d6f4"/></g></g><g><path d="m11 9c-2.206 0-4 1.794-4 4s1.794 4 4 4 4-1.794 4-4-1.794-4-4-4zm0 6c-1.103 0-2-.897-2-2s.897-2 2-2 2 .897 2 2-.897 2-2 2z"/><path d="m13.707 21.707-1.414-1.414-1.293 1.293v-2.586h-2v4.586l-1.293-1.293-1.414 1.414 2.707 2.707v.586h-2v2h6v-2h-2v-2.586z"/><path d="m29.108 9h-1.707c-1.257 0-2.39.793-2.819 1.975l-3.249 8.936-1.36.907c-.523.349-.922.87-1.121 1.467l-1.573 4.715h-2.279v2h18.057l-.954-17.167c-.088-1.588-1.404-2.833-2.995-2.833zm-8.359 13.917c.059-.177.177-.333.333-.436l2.008-1.339c.464-.308 1.155-.041 1.29.499l1.339 5.359h-6.332zm7.032 4.083-1.461-5.845c-.299-1.195-1.325-2.04-2.535-2.136l2.677-7.361c.142-.393.52-.658.939-.658h1.707c.53 0 .969.415.999.945l.836 15.055z"/><path d="m11 39c-2.206 0-4 1.794-4 4s1.794 4 4 4 4-1.794 4-4-1.794-4-4-4zm0 6c-1.103 0-2-.897-2-2s.897-2 2-2 2 .897 2 2-.897 2-2 2z"/><path d="m21 39c-2.206 0-4 1.794-4 4s1.794 4 4 4 4-1.794 4-4-1.794-4-4-4zm0 6c-1.103 0-2-.897-2-2s.897-2 2-2 2 .897 2 2-.897 2-2 2z"/><path d="m21 51c-2.206 0-4 1.794-4 4s1.794 4 4 4 4-1.794 4-4-1.794-4-4-4zm0 6c-1.103 0-2-.897-2-2s.897-2 2-2 2 .897 2 2-.897 2-2 2z"/><path d="m31 51c-2.206 0-4 1.794-4 4s1.794 4 4 4 4-1.794 4-4-1.794-4-4-4zm0 6c-1.103 0-2-.897-2-2s.897-2 2-2 2 .897 2 2-.897 2-2 2z"/><path d="m31 39c-2.206 0-4 1.794-4 4s1.794 4 4 4 4-1.794 4-4-1.794-4-4-4zm0 6c-1.103 0-2-.897-2-2s.897-2 2-2 2 .897 2 2-.897 2-2 2z"/><path d="m60 57h-2c-.551 0-1-.449-1-1s.449-1 1-1h2c1.654 0 3-1.346 3-3s-1.346-3-3-3h-2c-.551 0-1-.449-1-1v-6c0-.278-.05-.543-.122-.799.077-.541.122-1.089.122-1.634 0-2.515-.831-5.009-2.34-7.021l-.61-.814c.625-3.898.95-7.869.95-11.815v-2.374c0-5.125-.913-10.158-2.712-14.958-.355-.948-1.275-1.585-2.288-1.585s-1.933.637-2.288 1.585c-1.799 4.801-2.712 9.833-2.712 14.959v2.374c0 3.945.325 7.917.951 11.815l-.61.814c-.678.904-1.211 1.909-1.601 2.966-1.214-.337-2.466-.513-3.74-.513h-8.382l-1-2h4.382c1.103 0 2-.897 2-2v-24c1.103 0 2-.897 2-2v-2c0-1.103-.897-2-2-2h-34c-1.103 0-2 .897-2 2v2c0 1.103.897 2 2 2v24c0 1.103.897 2 2 2h4.382l-1.275 2.55c-2.984 1.163-5.107 4.06-5.107 7.45 0 4.411 3.589 8 8 8h1c.551 0 1 .449 1 1s-.449 1-1 1h-2c-2.757 0-5 2.243-5 5s2.243 5 5 5h30c1.424 0 2.82-.225 4.165-.644.509.397 1.141.644 1.835.644h14c1.654 0 3-1.346 3-3s-1.346-3-3-3zm-7.852-26h-4.296c-.103-.664-.186-1.332-.27-2h4.835c-.083.668-.166 1.336-.269 2zm-5.148-13.456c0-4.885.87-9.682 2.585-14.257.129-.344.7-.344.829 0 1.716 4.575 2.586 9.372 2.586 14.257v2.374c0 2.359-.13 4.727-.361 7.083h-5.279c-.23-2.357-.36-4.725-.36-7.084zm-.06 16.202.56-.746h5l.56.746c1.174 1.565 1.845 3.481 1.924 5.433-.31-.108-.638-.179-.984-.179-1.654 0-3 1.346-3 3v6c0 .551-.449 1-1 1s-1-.449-1-1v-2c0-1.654-1.346-3-3-3-.119 0-.231.022-.346.035-.422-1.105-.654-2.286-.654-3.468 0-2.085.689-4.152 1.94-5.821zm-5.94 11.254c-1.103 0-2-.897-2-2s.897-2 2-2 2 .897 2 2-.897 2-2 2zm-11.618-10h-2.764l-1-2h2.764zm-6-2 1 2h-8.764l1-2zm-20.382-30h34l.001 2h-34.001zm2 4h30v24h-30zm6.618 26h2.764l-1 2h-2.382c-.132 0-.261.013-.392.02zm-1.618 28c-1.654 0-3-1.346-3-3s1.346-3 3-3h2c1.654 0 3-1.346 3-3s-1.346-3-3-3h-1c-3.309 0-6-2.691-6-6s2.691-6 6-6h29c1.092 0 2.166.151 3.206.438-.13.698-.204 1.406-.205 2.118-.591-.344-1.269-.556-2.001-.556-2.206 0-4 1.794-4 4s1.794 4 4 4c.732 0 1.409-.212 2-.556v1.556c0 .551-.449 1-1 1h-2c-1.654 0-3 1.346-3 3s1.346 3 3 3h8c.551 0 1 .449 1 1s-.449 1-1 1h-2c-1.654 0-3 1.346-3 3 0 .207.021.409.061.605-.994.262-2.019.395-3.061.395zm50 0h-14c-.551 0-1-.449-1-1s.449-1 1-1h2c1.654 0 3-1.346 3-3s-1.346-3-3-3h-8c-.551 0-1-.449-1-1s.449-1 1-1h2c1.654 0 3-1.346 3-3v-2c0-.551.449-1 1-1s1 .449 1 1v2c0 1.654 1.346 3 3 3s3-1.346 3-3v-6c0-.551.449-1 1-1s1 .449 1 1v6c0 1.654 1.346 3 3 3h2c.551 0 1 .449 1 1s-.449 1-1 1h-2c-1.654 0-3 1.346-3 3s1.346 3 3 3h2c.551 0 1 .449 1 1s-.449 1-1 1z"/></g></g></svg>