<svg id="_x33_0" enable-background="new 0 0 64 64" height="512" viewBox="0 0 64 64" width="512" xmlns="http://www.w3.org/2000/svg"><g><g><g><path d="m10 42h6 32 6 1c.55 0 1 .45 1 1v18c0 .55-.45 1-1 1h-46c-.55 0-1-.45-1-1v-18c0-.55.45-1 1-1z" fill="#cf9e76"/></g><g><path d="m24 46h16v4h-16z" fill="#b4dd7f"/></g><g><path d="m54 12v30h-6v-14.59c0-.26-.11-.52-.29-.7l-1.42-1.42c-.18-.18-.29-.44-.29-.7v-8.59c0-1.1-.9-2-2-2v-4h8c1.1 0 2 .9 2 2z" fill="#e6e9ed"/></g><g><path d="m18 10v4c-1.1 0-2 .9-2 2v26h-6v-30c0-1.1.9-2 2-2z" fill="#e6e9ed"/></g><g><path d="m48 27.41v14.59h-32v-26c0-1.1.9-2 2-2h26c1.1 0 2 .9 2 2v8.59c0 .26.11.52.29.7l1.42 1.42c.18.18.29.44.29.7z" fill="#fcd770"/></g><g><path d="m40 21v2c0 .55-.45 1-1 1h-3-10-4v-3c0-.55.45-1 1-1h16c.55 0 1 .45 1 1z" fill="#aab2bd"/></g><g><path d="m36 24v5c0 .55-.45 1-1 1h-8c-.55 0-1-.45-1-1v-5z" fill="#ccd1d9"/></g><g><path d="m44 4v6 4h-26v-4-6c0-1.1.9-2 2-2h22c1.1 0 2 .9 2 2z" fill="#f0d0b4"/></g></g><g><path d="m23 25h2v4c0 1.103.897 2 2 2h8c1.103 0 2-.897 2-2v-4h2c1.103 0 2-.897 2-2v-2c0-1.103-.897-2-2-2h-16c-1.103 0-2 .897-2 2v12h2zm12 4h-8v-4h8zm-12-8h16v2h-16z"/><path d="m39 9h2v2h-2z"/><path d="m21 9h16v2h-16z"/><path d="m21 5h20v2h-20z"/><path d="m33 37h2v2h-2z"/><path d="m37 37h2v2h-2z"/><path d="m41 37h2v2h-2z"/><path d="m55 41v-29c0-1.654-1.346-3-3-3h-7v-5c0-1.654-1.346-3-3-3h-22c-1.654 0-3 1.346-3 3v5h-5c-1.654 0-3 1.346-3 3v29c-1.103 0-2 .897-2 2v18c0 1.103.897 2 2 2h46c1.103 0 2-.897 2-2v-18c0-1.103-.897-2-2-2zm-3-30c.552 0 1 .449 1 1v29h-4v-13.586c0-.534-.208-1.036-.586-1.414l-1.414-1.414v-8.586c0-1.302-.839-2.402-2-2.816v-2.184zm-34 4h26c.552 0 1 .449 1 1v8.586c0 .534.208 1.036.586 1.414l1.414 1.414v13.586h-30v-25c0-.551.448-1 1-1zm2-12h22c.552 0 1 .449 1 1v9h-24v-9c0-.551.448-1 1-1zm-9 9c0-.551.448-1 1-1h5v2.184c-1.161.414-2 1.514-2 2.816v25h-4zm44 49h-46l-.001-18h.001 46z"/><path d="m41 45h-18v6h18zm-2 4h-14v-2h14z"/></g></g></svg>