<svg id="_x33_0" enable-background="new 0 0 64 64" height="512" viewBox="0 0 64 64" width="512" xmlns="http://www.w3.org/2000/svg"><g><g><g><path d="m34 52h12 12c1.1 0 2.1.45 2.83 1.17.72.73 1.17 1.73 1.17 2.83 0 2.21-1.79 4-4 4h-20.17-.01c-.14-.43-.39-.81-.7-1.12-.54-.54-1.29-.88-2.12-.88h-2c.55 0 1-.45 1-1 0-2.76-2.24-5-5-5z" fill="#969faa"/></g><g><path d="m34 46h12v6h-12z" fill="#aab2bd"/></g><g><path d="m18 39.95h44v4.05c0 1.1-.9 2-2 2h-14-12-11.6c-1.06-1.82-2.58-3.34-4.4-4.4z" fill="#ccd1d9"/></g><g><path d="m60 18h-10.51-16.98-5.51c-.14.19-.29.37-.46.54-.68.68-1.56 1.16-2.54 1.36v1.27c0 1.81.72 3.55 2 4.83l-2 2v4 .36c0 2.01-1.63 3.64-3.64 3.64-.24 0-.48-.02-.71-.07l-1.65-.33v4.35h44v-19.95c0-1.1-.9-2-2-2z" fill="#69d6f4"/></g><g><path d="m43 4v2h-4v-2c0-1.1.9-2 2-2 .55 0 1.05.22 1.41.59.37.36.59.86.59 1.41z" fill="#969faa"/></g><g><path d="m52 7v3h-4-14-3c-.55 0-1-.45-1-1v-2c0-.55.45-1 1-1h8 4 8c.55 0 1 .45 1 1z" fill="#aab2bd"/></g><g><path d="m47.261 15.961c-.079.028-.174.039-.261.039h-3.88-4.24-3.88c-.087 0-.182-.011-.261-.039-2.862 1.986-4.739 5.292-4.739 9.039 0 6.075 4.925 11 11 11s11-4.925 11-11c0-3.747-1.877-7.053-4.739-9.039z" fill="#4fc1e9"/></g><g><path d="m48 10v5c0 .46-.31.84-.73.96-.08.03-.18.04-.27.04h-3.88-4.24-3.88c-.09 0-.19-.01-.27-.04-.42-.12-.73-.5-.73-.96v-5z" fill="#ccd1d9"/></g><g><path d="m22.4 46c1.02 1.76 1.6 3.81 1.6 6h-8c-1.1 0-2.1-.45-2.83-1.17l-4.24 4.24c-1.81-1.81-2.93-4.31-2.93-7.07v-1.53c0-1.69.59-3.29 1.62-4.56v-.01c1.08-.19 2.05-.72 2.8-1.48l.38-.42h.01 1.19c2.18 0 4.23.58 6 1.6 1.82 1.06 3.34 2.58 4.4 4.4z" fill="#ff826e"/></g><g><path d="m34 57c0 .55-.45 1-1 1h-1-16c-2.76 0-5.26-1.12-7.07-2.93l4.24-4.24c.73.72 1.73 1.17 2.83 1.17h8 5c2.76 0 5 2.24 5 5z" fill="#f0d0b4"/></g><g><path d="m38 61c0 .55-.45 1-1 1h-6c-.55 0-1-.45-1-1v-1c0-1.1.9-2 2-2h1 2c.83 0 1.58.34 2.12.88.31.31.56.69.7 1.12z" fill="#aab2bd"/></g><g><path d="m18 35.6v4.35 1.65c-1.77-1.02-3.82-1.6-6-1.6h-1.19-.01c.75-.92 1.2-2.09 1.2-3.37 0-1.06-.31-2.1-.9-2.98l-.63-.95c-.31-.46-.47-.99-.47-1.54 0-.74.29-1.45.82-1.98l.12-.12c.68-.68 1.06-1.6 1.06-2.56s-.38-1.88-1.06-2.56l-.23-.23c-.46-.46-.71-1.07-.71-1.71s.25-1.25.71-1.71l1-1c.64.44 1.43.71 2.28.71h9.01c.34 0 .68-.03 1-.1v1.27c0 1.81.72 3.55 2 4.83l-2 2v4 .36c0 2.01-1.63 3.64-3.64 3.64-.24 0-.48-.02-.71-.07z" fill="#f0d0b4"/></g><g><path d="m23 20c-1.95 0-7.16 0-9.01 0-.85 0-1.64-.27-2.28-.71l-1 1c-.46.46-.71 1.07-.71 1.71s.25 1.25.71 1.71l.23.23c.68.68 1.06 1.6 1.06 2.56s-.38 1.88-1.06 2.56l-.12.12c-.53.53-.82 1.24-.82 1.98 0 .55.16 1.08.47 1.54l.63.95c.59.88.9 1.92.9 2.98 0 1.28-.45 2.45-1.2 3.37l-.38.42c-.75.76-1.72 1.29-2.8 1.48-.32.07-.65.1-.99.1h-.02c-2.55 0-4.61-2.06-4.61-4.61 0-.9.27-1.79.77-2.55l.76-1.14c.31-.46.47-.99.47-1.54 0-.74-.29-1.45-.82-1.98l-.47-.47c-.46-.46-.71-1.07-.71-1.71s.25-1.25.71-1.71l.41-.41c.56-.56.88-1.33.88-2.12v-4.76c0-4.97 4.03-9 9-9h10c2.76 0 5 2.24 5 5 0 1.13-.37 2.17-1 3-.14.19-.29.37-.46.54-.68.68-1.56 1.16-2.54 1.36-.32.07-.66.1-1 .1z" fill="#fcd770"/></g></g><g><circle cx="20" cy="24" r="1"/><path d="m60 47c1.654 0 3-1.346 3-3v-24c0-1.654-1.346-3-3-3h-10.065c-.355-.397-.742-.766-1.151-1.115.134-.268.216-.566.216-.885v-4h2v4h2v-8c0-1.103-.897-2-2-2h-7v-1c0-1.654-1.346-3-3-3s-3 1.346-3 3v1h-7c-1.103 0-2 .897-2 2v2c0 1.103.897 2 2 2h2v4c0 .319.082.617.216.885-.409.349-.796.719-1.151 1.115h-3.411c.223-.635.346-1.307.346-2 0-3.309-2.691-6-6-6h-10c-5.514 0-10 4.486-10 10v4.757c0 .534-.208 1.036-.586 1.415l-.414.413c-.645.645-1 1.502-1 2.415s.355 1.77 1 2.414l.476.477c.337.337.524.786.524 1.264 0 .354-.104.698-.301.993l-.758 1.137c-.616.924-.941 2-.941 3.11 0 2.813 2.085 5.142 4.806 5.539-.523 1.1-.806 2.309-.806 3.538v1.528c0 6.065 4.935 11 11 11h13.171c-.11.313-.171.649-.171 1v1c0 1.103.897 2 2 2h6c1.103 0 2-.897 2-2h19c2.757 0 5-2.243 5-5s-2.243-5-5-5h-11v-4zm0-2h-37.063c-1.014-1.579-2.358-2.923-3.937-3.937v-.111h42v3.048c0 .551-.448 1-1 1zm-35.051 6c-.108-1.407-.431-2.753-.952-4h9.003v4zm-13.019-17.908-.629-.944c-.197-.295-.301-.638-.301-.993 0-.478.187-.927.526-1.267l.12-.121c.874-.873 1.354-2.033 1.354-3.267s-.48-2.394-1.354-3.268l-.232-.232c-.268-.267-.414-.622-.414-1s.146-.733.414-1l.471-.47c.641.301 1.356.469 2.11.469l9.005.001v.171c0 1.754.573 3.419 1.63 4.784l-1.63 1.63v3.415h-2c-1.103 0-2-.897-2-2h-2c0 2.206 1.794 4 4 4h1.913c-.288 1.146-1.319 2-2.552 2-.174 0-.349-.017-.518-.051l-4.646-.93-.393 1.961 2.196.44v3.583c-1.386-.58-2.895-.912-4.473-.976.303-.742.473-1.551.473-2.4 0-1.262-.37-2.484-1.07-3.535zm38.215-12.092h-3.6c-.373-1.604-.929-2.94-1.54-4h1.97c1.404 1.051 2.484 2.433 3.17 4zm-19.145 4c0-.68.085-1.347.219-2h3.896c-.068.635-.115 1.294-.115 2 0 .707.048 1.365.115 2h-3.914c-.131-.646-.201-1.315-.201-2zm11.619-8c.691.948 1.412 2.256 1.878 4h-6.993c.466-1.744 1.186-3.052 1.878-4zm2.249 6c.077.629.132 1.285.132 2 0 .714-.052 1.372-.127 2h-7.744c-.076-.629-.129-1.286-.129-2 0-.715.055-1.371.132-2zm-3.864 11.76c-.87-.719-2.629-2.516-3.496-5.76h6.99c-.862 3.249-2.616 5.041-3.494 5.76zm-5.563-5.76c.569 2.481 1.605 4.295 2.597 5.552-2.78-.864-5.04-2.913-6.197-5.552zm11.118 0h3.6c-1.157 2.639-3.417 4.688-6.197 5.552.991-1.257 2.027-3.071 2.597-5.552zm4.441-4c0 .685-.07 1.354-.202 2h-3.914c.068-.635.116-1.293.116-2 0-.706-.047-1.365-.115-2h3.896c.134.653.219 1.32.219 2zm-11-21c0-.551.448-1 1-1s1 .449 1 1v1h-2zm-9 3h20v2h-20zm16 4v4h-12v-4zm-11.976 6h1.971c-.611 1.06-1.167 2.396-1.54 4h-3.6c.686-1.567 1.766-2.95 3.169-4zm-4.392 2c-1.043 1.802-1.632 3.86-1.632 6 0 6.617 5.383 12 12 12s12-5.383 12-12c0-2.14-.589-4.198-1.632-6h8.632c.552 0 1 .449 1 1v18.952h-42v-2.132l.451.09c.299.059.605.09.909.09 2.559 0 4.64-2.082 4.64-4.64v-3.946l2.414-2.414-.707-.707c-1.101-1.102-1.707-2.565-1.707-4.122v-.518c.834-.294 1.601-.767 2.244-1.411.078-.078.147-.161.22-.243h3.168zm-27.632 18.395c0-.714.209-1.406.605-2l.758-1.137c.416-.625.637-1.352.637-2.103 0-1.013-.395-1.964-1.11-2.679l-.476-.476c-.268-.267-.414-.622-.414-1s.146-.733.414-1l.414-.414c.756-.756 1.172-1.761 1.172-2.829v-4.757c0-4.411 3.589-8 8-8h10c2.206 0 4 1.794 4 4 0 1.069-.416 2.073-1.17 2.829-.755.755-1.759 1.171-2.826 1.171h-.001l-9.008-.001c-1.651-.001-2.995-1.346-2.995-2.999 0-.55.447-.998 1.001-.999h.001c.267 0 .517.104.705.292.189.189.293.44.293.707v1h2v-1c0-.801-.313-1.555-.879-2.121s-1.318-.877-2.122-.877c-.001 0-.002 0-.002 0-1.652 0-2.997 1.345-2.997 2.998 0 1.273.479 2.437 1.265 3.321l-.265.264c-.645.645-1 1.502-1 2.415s.355 1.77 1 2.414l.232.232c.496.496.768 1.154.768 1.854s-.272 1.358-.77 1.855l-.12.121c-.715.715-1.11 1.667-1.11 2.679 0 .751.221 1.478.637 2.102l.629.944c.48.721.734 1.56.734 2.426 0 2.411-1.962 4.373-4.395 4.373-1.988 0-3.605-1.617-3.605-3.605zm4 9.077c0-1.327.444-2.617 1.228-3.684 1.172-.305 2.213-.933 3.022-1.788h.75c5.728 0 10.442 4.402 10.949 10h-6.949c-1.654 0-3-1.346-3-3v-3h-2v3c0 1.017.309 1.962.833 2.753l-2.858 2.858c-1.233-1.541-1.975-3.489-1.975-5.611zm9 10.528c-2.122 0-4.071-.742-5.611-1.975l2.858-2.858c.791.524 1.736.833 2.753.833h13c2.206 0 4 1.794 4 4zm15 4v-1c0-.551.448-1 1-1h3c1.103 0 2 .897 2 2zm30-5c0 1.654-1.346 3-3 3h-19.556c-.694-1.19-1.97-2-3.444-2 0-1.538-.586-2.937-1.54-4h24.54c1.654 0 3 1.346 3 3zm-16-5h-10v-4h10z"/></g></g></svg>