<svg id="_x33_0" enable-background="new 0 0 64 64" height="512" viewBox="0 0 64 64" width="512" xmlns="http://www.w3.org/2000/svg"><g><g><g><path d="m47.59 59.59c.26.26.41.62.41 1 0 .78-.63 1.41-1.41 1.41h-31.18c-.78 0-1.41-.63-1.41-1.41 0-.38.15-.74.41-1 1.15-1.15 2.5-2.05 3.97-2.66 1.48-.61 3.06-.93 4.69-.93h2.93v1c0 .55.45 1 1 1h8c.55 0 1-.45 1-1v-1h2.93c3.25 0 6.36 1.29 8.66 3.59z" fill="#969faa"/></g><g><path d="m36 56v1c0 .55-.45 1-1 1h-8c-.55 0-1-.45-1-1v-1-6h10z" fill="#aab2bd"/></g><g><path d="m3 6h38.05c-1.48 1.65-2.5 3.71-2.88 6h-34.17-1c-.55 0-1-.45-1-1v-4c0-.55.45-1 1-1z" fill="#ccd1d9"/></g><g><path d="m22 38h15 17v-7.68c1.29-1.47 2.71-3.29 4-5.29v23.97c0 .55-.45 1-1 1h-21-10-21c-.55 0-1-.45-1-1v-37h34.17c-.11.65-.17 1.32-.17 2 0 .66.06 1.33.17 2h-4.17-8-18v6 10 6h13z" fill="#e6e9ed"/></g><g><path d="m24 42h4v4h-4z" fill="#fcd770"/></g><g><path d="m16 42h4v4h-4z" fill="#fcd770"/></g><g><path d="m8 42h4v4h-4z" fill="#fcd770"/></g><g><path d="m8 32v-10h2.93c1.33 0 2.6.53 3.53 1.46l.83.83c.46.46 1.07.71 1.71.71s1.25-.25 1.71-.71l.23-.23c.68-.68 1.6-1.06 2.56-1.06s1.88.38 2.56 1.06l.32.32c.4.4.94.62 1.5.62.58 0 1.12-.24 1.5-.62s.62-.92.62-1.5c0-.57-.17-1.13-.49-1.61l-.51-.77c-.65-.98-1-2.13-1-3.3v-1.2h8v1.34c0 1.06.42 2.08 1.17 2.83l.26.26c.37.37.57.86.57 1.37 0 .74-.41 1.41-1.07 1.74l-1.56.78c-.84.42-1.37 1.27-1.37 2.21 0 .68.28 1.3.72 1.75.45.44 1.07.72 1.75.72h1.87c1.06 0 2.08.42 2.83 1.17l.66.66c.75.75 1.77 1.17 2.83 1.17 1.34 0 2.63-.48 3.65-1.34 1.84 2.05 3.35 3.34 3.69 3.34.36 0 2.02-1.43 4-3.68v7.68h-17l-1.11-2.21c-.58-1.16-1.52-2.1-2.68-2.68l-1.14-.58c-.69-.34-1.21-.94-1.45-1.66l-.16-.5c-.28-.82-1.04-1.37-1.9-1.37-.92 0-1.72.62-1.94 1.51l-.24.96c-.24.95-.95 1.72-1.88 2.03s-1.64 1.08-1.88 2.03l-.62 2.47h-1l-2.38-2.38c-.4-.4-.62-.94-.62-1.5 0-1.17-.95-2.12-2.12-2.12h-.64c-.79 0-1.56-.32-2.12-.88l-.41-.41c-.46-.46-1.07-.71-1.71-.71s-1.25.25-1.71.71z" fill="#69d6f4"/></g><g><path d="m21 38h-13v-6l1.29-1.29c.46-.46 1.07-.71 1.71-.71s1.25.25 1.71.71l.41.41c.56.56 1.33.88 2.12.88h.64c1.17 0 2.12.95 2.12 2.12 0 .56.22 1.1.62 1.5z" fill="#b4dd7f"/></g><g><path d="m38.17 16c.87 5.39 4.99 11.15 8.14 14.66-1.02.86-2.31 1.34-3.65 1.34-1.06 0-2.08-.42-2.83-1.17l-.66-.66c-.75-.75-1.77-1.17-2.83-1.17h-1.87c-.68 0-1.3-.28-1.75-.72-.44-.45-.72-1.07-.72-1.75 0-.94.53-1.79 1.37-2.21l1.56-.78c.66-.33 1.07-1 1.07-1.74 0-.51-.2-1-.57-1.37l-.26-.26c-.75-.75-1.17-1.77-1.17-2.83v-1.34z" fill="#b4dd7f"/></g><g><path d="m35.89 35.79 1.11 2.21h-15l.62-2.47c.24-.95.95-1.72 1.88-2.03s1.64-1.08 1.88-2.03l.24-.96c.22-.89 1.02-1.51 1.94-1.51.86 0 1.62.55 1.9 1.37l.16.5c.24.72.76 1.32 1.45 1.66l1.14.58c1.16.58 2.1 1.52 2.68 2.68z" fill="#b4dd7f"/></g><g><path d="m27.51 21.27c.32.48.49 1.04.49 1.61 0 .58-.24 1.12-.62 1.5s-.92.62-1.5.62c-.56 0-1.1-.22-1.5-.62l-.32-.32c-.68-.68-1.6-1.06-2.56-1.06s-1.88.38-2.56 1.06l-.23.23c-.46.46-1.07.71-1.71.71s-1.25-.25-1.71-.71l-.83-.83c-.93-.93-2.2-1.46-3.53-1.46h-2.93v-6h18v1.2c0 1.17.35 2.32 1 3.3z" fill="#b4dd7f"/></g><g><path d="m41.05 6c2.2-2.46 5.39-4 8.95-4 6.63 0 12 5.37 12 12 0 3.64-1.79 7.6-4 11.03-1.29 2-2.71 3.82-4 5.29-1.98 2.25-3.64 3.68-4 3.68-.34 0-1.85-1.29-3.69-3.34-3.15-3.51-7.27-9.27-8.14-14.66-.11-.67-.17-1.34-.17-2 0-.68.06-1.35.17-2 .38-2.29 1.4-4.35 2.88-6z" fill="#ff826e"/></g><g><circle cx="50" cy="14" fill="#ffeaa7" r="8"/></g><g><circle cx="50" cy="14" fill="#fcd770" r="2"/></g></g><g><path d="m50 23c4.963 0 9-4.038 9-9s-4.037-9-9-9-9 4.038-9 9 4.037 9 9 9zm-6.92-8h4.104c.302.847.969 1.514 1.816 1.816v4.104c-3.059-.441-5.479-2.861-5.92-5.92zm6.92-2c.552 0 1 .449 1 1s-.448 1-1 1-1-.449-1-1 .448-1 1-1zm1 7.92v-4.104c.847-.302 1.514-.969 1.816-1.816h4.104c-.441 3.059-2.861 5.479-5.92 5.92zm5.92-7.92h-4.104c-.302-.847-.969-1.514-1.816-1.816v-4.104c3.059.441 5.479 2.861 5.92 5.92zm-7.92-5.92v4.104c-.847.302-1.514.969-1.816 1.816h-4.104c.441-3.059 2.861-5.479 5.92-5.92z"/><path d="m63 14c0-7.168-5.832-13-13-13-3.675 0-6.992 1.54-9.359 4h-37.641c-1.103 0-2 .897-2 2v4c0 1.103.897 2 2 2v36c0 1.103.897 2 2 2h20v4h-1.929c-3.537 0-6.863 1.377-9.365 3.879-.448.45-.706 1.072-.706 1.707 0 1.331 1.083 2.414 2.414 2.414h31.172c1.331 0 2.414-1.083 2.414-2.414 0-.635-.258-1.257-.707-1.707-2.501-2.502-5.827-3.879-9.364-3.879h-1.929v-4h20c1.103 0 2-.897 2-2v-23.687c2.237-3.565 4-7.629 4-11.313zm-13-11c6.065 0 11 4.935 11 11 0 7.744-8.907 17.366-11 18.879-2.093-1.513-11-11.135-11-18.879 0-6.065 4.935-11 11-11zm-23.832 18.055.513.769c.209.313.319.678.319 1.055 0 .618-.503 1.121-1.121 1.121-.295 0-.584-.12-.793-.328l-.318-.318c-.86-.861-2.051-1.354-3.268-1.354s-2.408.493-3.268 1.354l-.232.231c-.535.535-1.465.535-2 0l-.828-.829c-1.135-1.132-2.642-1.756-4.243-1.756h-1.929v-4h16v.197c0 1.378.404 2.712 1.168 3.858zm-17.168 11.359 1-1c.535-.535 1.465-.535 2 0l.414.414c.744.745 1.774 1.172 2.828 1.172h.637c.618 0 1.121.503 1.121 1.121 0 .834.324 1.618.914 2.207l.672.672h-9.586zm28.618 4.586-.829-1.659c-.674-1.346-1.786-2.458-3.131-3.13l-1.144-.572c-.449-.225-.784-.611-.943-1.088l-.167-.5c-.408-1.227-1.551-2.051-2.844-2.051-1.379 0-2.574.934-2.907 2.271l-.238.953c-.157.627-.617 1.124-1.23 1.328-1.265.422-2.213 1.446-2.537 2.74l-.388 1.553-1.93-1.93c-.214-.213-.33-.494-.33-.794 0-1.721-1.4-3.121-3.121-3.121h-.637c-.526 0-1.042-.213-1.414-.586l-.414-.414c-1.164-1.162-3.097-1.267-4.414-.334v-6.666h1.929c1.068 0 2.073.416 2.829 1.171l.828.829c1.291 1.289 3.537 1.29 4.828 0l.232-.232c.975-.976 2.732-.976 3.707 0l.318.318c.582.581 1.386.914 2.208.914 1.721 0 3.121-1.4 3.121-3.121 0-.772-.227-1.521-.655-2.165l-.513-.769c-.544-.816-.832-1.766-.832-2.748v-.197h6v.343c0 1.335.521 2.591 1.464 3.535l.262.262c.176.177.274.412.274.663 0 .357-.198.679-.519.838l-1.563.781c-1.183.592-1.918 1.782-1.918 3.106 0 1.914 1.558 3.472 3.472 3.472h1.871c.802 0 1.556.312 2.121.878l.657.658c.944.944 2.2 1.464 3.536 1.464 1.247 0 2.458-.365 3.508-1.018 1.777 1.867 3.267 3.018 3.835 3.018.476 0 1.602-.814 3-2.175v4.175zm-2.236 0h-12.102l.306-1.223c.157-.627.617-1.124 1.23-1.328 1.265-.422 2.213-1.446 2.537-2.74l.239-.954c.111-.444.509-.755.968-.755.431 0 .811.274.947.684l.167.5c.328.983 1.019 1.78 1.946 2.244l1.144.572c.961.48 1.755 1.275 2.236 2.236zm9.416-6.537c-.659.342-1.39.537-2.141.537-.802 0-1.556-.312-2.121-.878l-.657-.658c-.944-.944-2.2-1.464-3.536-1.464h-1.871c-.812 0-1.472-.661-1.472-1.472 0-.561.312-1.065.813-1.316l1.563-.781c1.002-.502 1.624-1.509 1.624-2.628 0-.785-.306-1.522-.859-2.077l-.262-.262c-.559-.558-.879-1.331-.879-2.121v-.343h2.355c1.071 4.853 4.422 9.938 7.443 13.463zm-41.798-23.463h36.063c-.778 1.212-1.357 2.559-1.7 4h-34.363zm35.929 50c3.003 0 5.826 1.169 7.949 3.292.078.078.122.185.122.294 0 .228-.186.414-.414.414h-31.172c-.228 0-.414-.186-.414-.414 0-.109.044-.216.121-.293 2.124-2.124 4.947-3.293 7.95-3.293h1.929c0 1.103.897 2 2 2h8c1.103 0 2-.897 2-2zm-3.929 0h-8v-6h8zm22-8h-52v-36h32.051c-.026.331-.051.662-.051 1 0 .33.018.664.045 1h-30.045v24h48v-8.301c.657-.755 1.332-1.588 2-2.479z"/><path d="m7 47h6v-6h-6zm2-4h2v2h-2z"/><path d="m15 47h6v-6h-6zm2-4h2v2h-2z"/><path d="m23 47h6v-6h-6zm2-4h2v2h-2z"/><path d="m45 41h10v2h-10z"/><path d="m39 41h4v2h-4z"/><path d="m39 45h16v2h-16z"/></g></g></svg>