<svg id="_x33_0" enable-background="new 0 0 64 64" height="512" viewBox="0 0 64 64" width="512" xmlns="http://www.w3.org/2000/svg"><g><g><g><path d="m28 2h4c1.1 0 2 .9 2 2v4 18 30 4c0 1.1-.9 2-2 2h-4c1.1 0 2-.9 2-2v-23.33-13.34-19.33c0-1.1-.9-2-2-2z" fill="#cf9e76"/></g><g><path d="m28 2h-24c-1.1 0-2 .9-2 2v56c0 1.1.9 2 2 2h24c1.1 0 2-.9 2-2v-56c0-1.1-.9-2-2-2z" fill="#dfb28b"/></g><g><path d="m60 4h-26v56h26c1.1 0 2-.9 2-2v-52c0-1.1-.9-2-2-2z" fill="#e6e9ed"/></g><g><path d="m58 48v4c0 2.21-1.79 4-4 4h-4c-2.21 0-4-1.79-4-4v-4z" fill="#aab2bd"/></g><g><path d="m58 44v4h-12v-4h6z" fill="#ffeaa7"/></g><g><path d="m52 18h6v26h-6z" fill="#fcd770"/></g><g><path d="m46 18h6v26h-6z" fill="#ff826e"/></g><g><path d="m53.45 8.89c-.28-.54-.84-.89-1.45-.89s-1.17.35-1.45.89l-4.55 9.11h12z" fill="#aab2bd"/></g><g><path d="m40 32v22c0 1.1-.9 2-2 2h-4v-30h4v5c0 .55.45 1 1 1z" fill="#b4dd7f"/></g><g><path d="m40 10v8h-1c-.55 0-1 .45-1 1v7h-4v-18h4c1.1 0 2 .9 2 2z" fill="#b4dd7f"/></g><g><path d="m42 19v12c0 .55-.45 1-1 1h-1-1c-.55 0-1-.45-1-1v-5-7c0-.55.45-1 1-1h1 1c.55 0 1 .45 1 1z" fill="#a0d468"/></g><g><path d="m30 23.33v13.34l-1.09 1.2c-1.21 1.36-2.95 2.13-4.77 2.13-1.39 0-2.74-.45-3.85-1.28l-.1-.08c-1.38-1.03-2.19-2.65-2.19-4.37 0-1.46.58-2.85 1.6-3.87l.4-.4-.4-.4c-1.02-1.02-1.6-2.41-1.6-3.87 0-1.72.81-3.34 2.19-4.37l.1-.08c1.11-.83 2.46-1.28 3.85-1.28 1.82 0 3.56.77 4.77 2.13z" fill="#ff826e"/></g><g><path d="m16.72 41.29c.83 1.11 1.28 2.46 1.28 3.85 0 1.82-.77 3.56-2.13 4.77l-7.87 7.09-6-5.4v-12.32c.55-.18 1.14-.28 1.73-.28 1.46 0 2.85.58 3.87 1.6l.4.4.4-.4c1.02-1.02 2.41-1.6 3.87-1.6 1.72 0 3.34.81 4.37 2.19z" fill="#ff826e"/></g><g><path d="m10.72 10.29c.83 1.11 1.28 2.46 1.28 3.85 0 1.82-.77 3.56-2.13 4.77l-7.87 7.09v-16l.4-.4c1.02-1.02 2.41-1.6 3.87-1.6 1.72 0 3.34.81 4.37 2.19z" fill="#ff826e"/></g></g><g><path d="m60 3h-25.184c-.414-1.161-1.514-2-2.816-2h-28c-1.654 0-3 1.346-3 3v56c0 1.654 1.346 3 3 3h28c1.302 0 2.402-.839 2.816-2h25.184c1.654 0 3-1.346 3-3v-52c0-1.654-1.346-3-3-3zm-21 30v21c0 .552-.448 1-1 1h-3v-28h2v4c0 1.103.897 2 2 2zm0-2v-12h2l.002 12zm0-14c-1.103 0-2 .897-2 2v6h-2v-16h3c.552 0 1 .448 1 1zm-18.691 11.895c-.844-.844-1.309-1.966-1.309-3.161 0-1.398.668-2.735 1.786-3.574l.103-.076c.93-.699 2.086-1.084 3.252-1.084 1.534 0 3.003.654 4.029 1.795l.83.922v12.567l-.83.922c-1.026 1.14-2.495 1.794-4.029 1.794-1.166 0-2.321-.385-3.254-1.085l-.099-.074c-1.12-.84-1.788-2.177-1.788-3.575 0-1.194.465-2.316 1.309-3.16l1.105-1.106zm-17.309 11.172c1.407-.229 2.877.224 3.895 1.242l1.105 1.105 1.105-1.105c.844-.844 1.966-1.309 3.161-1.309 1.398 0 2.735.668 3.574 1.786l.076.103c.699.93 1.084 2.086 1.084 3.252 0 1.534-.654 3.003-1.795 4.029l-7.205 6.484-5-4.5zm0-29.653.105-.105c.844-.844 1.966-1.309 3.161-1.309 1.398 0 2.735.668 3.574 1.786l.076.103c.699.93 1.084 2.086 1.084 3.252 0 1.534-.654 3.003-1.795 4.029l-6.205 5.585zm1 50.586c-.552 0-1-.448-1-1v-6.155l5 4.501 8.543-7.689c1.561-1.405 2.457-3.416 2.457-5.516 0-1.596-.527-3.177-1.483-4.451l-.076-.103c-1.216-1.62-3.151-2.587-5.175-2.587-1.586 0-3.085.566-4.266 1.604-1.364-1.198-3.206-1.745-5-1.546v-11.613l7.543-6.789c1.561-1.404 2.457-3.415 2.457-5.515 0-1.596-.527-3.177-1.483-4.451l-.077-.103c-1.215-1.62-3.15-2.587-5.174-2.587-1.168 0-2.285.314-3.266.89v-3.89c0-.552.448-1 1-1h24c.552 0 1 .448 1 1v16.82c-1.341-1.162-3.066-1.82-4.859-1.82-1.596 0-3.177.527-4.451 1.483l-.103.076c-1.62 1.216-2.587 3.151-2.587 5.175 0 1.586.566 3.085 1.604 4.266-1.038 1.181-1.604 2.68-1.604 4.266 0 2.024.967 3.959 2.589 5.176l.099.074c1.276.957 2.857 1.484 4.453 1.484 1.794 0 3.518-.658 4.859-1.82v20.82c0 .552-.448 1-1 1zm29-1c0 .552-.448 1-1 1h-1.184c.112-.314.184-.648.184-1v-56c0-.352-.072-.686-.184-1h1.184c.552 0 1 .448 1 1zm28-2c0 .552-.448 1-1 1h-25v-2h3c1.654 0 3-1.346 3-3v-21c1.103 0 2-.897 2-2v-12c0-1.103-.897-2-2-2v-7c0-1.654-1.346-3-3-3h-3v-2h25c.552 0 1 .448 1 1z"/><path d="m52 7c-.997 0-1.895.555-2.342 1.447l-4.658 9.317v34.236c0 2.757 2.243 5 5 5h4c2.757 0 5-2.243 5-5v-34.236l-4.658-9.317c-.447-.892-1.345-1.447-2.342-1.447zm-1 12v24h-4v-24zm6 26v2h-10v-2zm-4-2v-24h4v24zm-5.382-26 2-4h4.763l2 4zm4.935-7.658.829 1.658h-2.763l.829-1.657c.21-.424.894-.423 1.105-.001zm1.447 45.658h-4c-1.654 0-3-1.346-3-3v-3h10v3c0 1.654-1.346 3-3 3z"/></g></g></svg>