<svg id="_x33_0" enable-background="new 0 0 64 64" height="512" viewBox="0 0 64 64" width="512" xmlns="http://www.w3.org/2000/svg"><g><g><g><path d="m49 12h-4-4c-.34 0-.68-.03-1-.1-2.28-.46-4-2.48-4-4.9 0-1.38.56-2.63 1.46-3.54.91-.9 2.16-1.46 3.54-1.46h9c6.63 0 12 5.37 12 12v8.82c0 5.12-2.16 9.92-5.82 13.29-1.23 1.14-2.64 2.12-4.18 2.89v-5-17.84c0-.94-.3-1.84-.83-2.56-.53-.73-1.27-1.3-2.17-1.6z" fill="#656d78"/></g><g><path d="m51.82 48.82-2.41-2.41-.28-.28c-.72-.72-1.13-1.71-1.13-2.74 0-1.46.83-2.8 2.14-3.46l1.86-.93v8c0 .62-.06 1.23-.18 1.82z" fill="#656d78"/></g><g><path d="m49.41 46.41 2.41 2.41c-.32 1.52-1.01 2.89-1.98 4.02l-.71-.71c-.72-.72-1.13-1.71-1.13-2.74 0-1.17.53-2.26 1.41-2.98z" fill="#656d78"/></g><g><path d="m52 34v5l-1.86.93c-1.31.66-2.14 2-2.14 3.46 0 1.03.41 2.02 1.13 2.74l.28.28c-.88.72-1.41 1.81-1.41 2.98 0 1.03.41 2.02 1.13 2.74l.71.71c-1.65 1.94-4.1 3.16-6.84 3.16h-3v-7.83c0-.16 0-.31.01-.47.08-2.66.9-5.17 2.27-7.3.98-1.52 2.24-2.85 3.72-3.91 1.74-1.25 3.77-2.12 6-2.49z" fill="#ff826e"/></g><g><path d="m60 44.25v3.75c0 7.73-6.27 14-14 14h-12v-6h6 3c2.74 0 5.19-1.22 6.84-3.16.97-1.13 1.66-2.5 1.98-4.02.12-.59.18-1.2.18-1.82v-8c1.54-.77 2.95-1.75 4.18-2.89 2.36 1.96 3.82 4.91 3.82 8.14z" fill="#ff826e"/></g><g><path d="m42.28 40.4c-1.37 2.13-2.19 4.64-2.27 7.3-4.56-1.75-8.75-4.44-12.26-7.95l-.75-.75 4.02-4.02c3.15 2.86 7.06 4.75 11.26 5.42z" fill="#ff826e"/></g><g><path d="m30 4v20c0 1.1-.9 2-2 2h-6v2.59c0 .78-.63 1.41-1.41 1.41-.38 0-.74-.15-1-.41l-3.59-3.59h-12c-1.1 0-2-.9-2-2v-20c0-1.1.9-2 2-2h24c1.1 0 2 .9 2 2z" fill="#e6e9ed"/></g><g><path d="m18.96 17.22-.8 3.98c-.09.46-.5.8-.98.8h-2.36c-.48 0-.89-.34-.98-.8l-.8-3.98c.87.5 1.88.78 2.96.78s2.09-.28 2.96-.78z" fill="#aab2bd"/></g><g><path d="m16 18c-1.08 0-2.09-.28-2.96-.78-1.81-1.03-3.04-2.99-3.04-5.22 0-3.31 2.69-6 6-6s6 2.69 6 6c0 2.23-1.23 4.19-3.04 5.22-.87.5-1.88.78-2.96.78z" fill="#ffeaa7"/></g><g><circle cx="16" cy="12" fill="#fcd770" r="2"/></g><g><path d="m24 58v3c0 .55-.45 1-1 1h-18c-.55 0-1-.45-1-1v-3z" fill="#b4dd7f"/></g><g><path d="m23 34h-18c-.55 0-1 .45-1 1v23h20v-23c0-.55-.45-1-1-1z" fill="#e6e9ed"/></g><g><path d="m34 56v6h-3c-.83 0-1.58-.34-2.12-.88s-.88-1.29-.88-2.12c0-1.66 1.34-3 3-3z" fill="#f0d0b4"/></g><g><path d="m31.02 34.98-4.02 4.02-2.17-2.17c-.53-.53-.83-1.25-.83-2v-.06c0-1.53 1.24-2.77 2.77-2.77h.06c.75 0 1.47.3 2 .83l1.42 1.42c.25.25.51.5.77.73z" fill="#f0d0b4"/></g><g><path d="m52 16.16v17.84c-2.23.37-4.26 1.24-6 2.49v-6.49h-2c-2.21 0-4-1.79-4-4h2c2.21 0 4-1.79 4-4h-6v-.38c0-.38-.21-.73-.55-.9l-.25-.12c-.74-.37-1.2-1.12-1.2-1.94 0-.43.13-.85.36-1.21l1.3-1.95c.22-.32.34-.71.34-1.11v-2.49c.32.07.66.1 1 .1h4 4c.9.3 1.64.87 2.17 1.6.53.72.83 1.62.83 2.56z" fill="#f0d0b4"/></g><g><path d="m40 22h6c0 2.21-1.79 4-4 4h-2z" fill="#ff826e"/></g></g><g><circle cx="44" cy="16" r="1"/><path d="m63 22.819v-8.819c0-7.168-5.832-13-13-13h-9c-3.309 0-6 2.691-6 6 0 2.607 1.673 4.824 4 5.65v1.745c0 .198-.058.39-.168.555l-1.299 1.949c-.349.522-.533 1.13-.533 1.758 0 1.209.672 2.297 1.754 2.838l.246.123v4.382c0 2.757 2.243 5 5 5h1v4.987c-1.225.94-2.307 2.047-3.194 3.303-4.126-.797-7.871-2.769-10.854-5.752l-1.417-1.417c-.723-.723-1.684-1.121-2.762-1.121-1.45 0-2.697.832-3.328 2.054-.144-.033-.292-.054-.445-.054h-18c-1.103 0-2 .897-2 2v26c0 1.103.897 2 2 2h18c1.103 0 2-.897 2-2v-22.586l2.042 2.042c3.439 3.439 7.463 6.089 11.958 7.906v6.638h-8c-2.206 0-4 1.794-4 4s1.794 4 4 4h15c8.271 0 15-6.729 15-15v-3.754c0-3.079-1.219-5.987-3.367-8.145 3.397-3.494 5.367-8.208 5.367-13.282zm-26-15.819c0-2.206 1.794-4 4-4h9c6.065 0 11 4.935 11 11v8.819c0 5.954-3.031 11.352-8 14.463v-21.12c0-2.322-1.48-4.376-3.684-5.11-1.385-.463-2.316-1.754-2.316-3.214v-.838h-2v.838c0 1.166.374 2.264 1.025 3.162h-1.025c-2.206 0-4-1.794-4-4h-2c0 1.513.567 2.892 1.494 3.949-1.965-.252-3.494-1.916-3.494-3.949zm12.842 38.428c-.543-.543-.842-1.265-.842-2.033 0-1.096.609-2.081 1.589-2.571l.411-.206v5.968zm-.106 5.871c-.47-.527-.736-1.192-.736-1.904 0-.55.17-1.071.456-1.524l1.249 1.249c-.214.78-.543 1.513-.969 2.179zm-8.736-28.299h3.829c-.413 1.164-1.525 2-2.829 2h-1zm6 8h2v-2h-5c-1.302 0-2.402-.839-2.816-2h.816c2.757 0 5-2.243 5-5v-1h-6.105c-.162-.501-.511-.927-1.001-1.171l-.246-.123c-.399-.2-.648-.602-.648-1.049 0-.231.068-.456.197-.649l1.299-1.948c.33-.495.504-1.07.504-1.665v-1.395h7.805c1.316.497 2.195 1.747 2.195 3.162v17.029c-1.425.318-2.766.823-4 1.493zm-24 4 .001 10h-18.001v-10zm.001 12 .001 10h-18.002v-10zm-18.001 14v-2h18.001v2zm20-26.227c0-.977.795-1.773 1.829-1.773.488 0 .948.19 1.293.535l1.417 1.417c.016.016.034.03.049.046l-2.588 2.588-1.466-1.467c-.345-.345-.534-.802-.534-1.346zm3.414 4.227 2.657-2.657c2.796 2.34 6.079 3.961 9.646 4.766-.815 1.579-1.359 3.313-1.585 5.143-3.997-1.705-7.586-4.122-10.676-7.211zm12.586 9.165c0-6.157 4.14-11.418 10-12.931v3.148l-1.305.652c-1.662.831-2.695 2.502-2.695 4.361 0 1.1.38 2.131 1.047 2.984-.673.851-1.047 1.907-1.047 3.016 0 1.303.507 2.526 1.427 3.447l.01.01c-1.429 1.328-3.337 2.148-5.437 2.148h-2zm-12 10.835c0-1.103.897-2 2-2h2v4h-2c-1.103 0-2-.897-2-2zm30-14.754v3.754c0 7.168-5.832 13-13 13h-11v-4h8c5.514 0 10-4.486 10-10v-7.406c1.136-.615 2.193-1.33 3.16-2.135 1.81 1.791 2.84 4.216 2.84 6.787z"/><path d="m15.586 27 3.293 3.294c.45.448 1.072.706 1.707.706 1.331 0 2.414-1.083 2.414-2.414v-1.586h5c1.654 0 3-1.346 3-3v-20c0-1.654-1.346-3-3-3h-24c-1.654 0-3 1.346-3 3v20c0 1.654 1.346 3 3 3zm-12.586-3v-20c0-.552.449-1 1-1h24c.551 0 1 .448 1 1v20c0 .552-.449 1-1 1h-7v3.586c0 .338-.468.532-.707.293l-3.879-3.879h-12.414c-.551 0-1-.448-1-1z"/><path d="m12.148 17.839.711 3.554c.186.931 1.011 1.607 1.961 1.607h2.36c.95 0 1.775-.676 1.961-1.607l.711-3.554c1.894-1.254 3.148-3.402 3.148-5.839 0-3.859-3.14-7-7-7s-7 3.141-7 7c0 2.437 1.254 4.585 3.148 5.839zm5.032 3.161h-2.36l-.439-2.197c.52.124 1.061.197 1.619.197s1.099-.073 1.62-.197zm-2.18-9c0-.552.449-1 1-1s1 .448 1 1-.449 1-1 1-1-.448-1-1zm1-5c2.757 0 5 2.243 5 5 0 2.414-1.721 4.434-4 4.899v-2.083c1.161-.414 2-1.514 2-2.816 0-1.654-1.346-3-3-3s-3 1.346-3 3c0 1.302.839 2.402 2 2.816v2.083c-2.279-.465-4-2.484-4-4.899 0-2.757 2.243-5 5-5z"/><path d="m7 49h2v6h-2z"/><path d="m11 49h2v2h-2z"/><path d="m11 53h2v2h-2z"/><path d="m15 37h2v2h-2z"/><path d="m15 41h2v2h-2z"/><path d="m15 49h2v6h-2z"/><path d="m19 49h2v6h-2z"/><path d="m7 37h2v6h-2z"/><path d="m11 37h2v6h-2z"/><path d="m19 37h2v6h-2z"/></g></g></svg>