<svg id="_x33_0" enable-background="new 0 0 64 64" height="512" viewBox="0 0 64 64" width="512" xmlns="http://www.w3.org/2000/svg"><g><g><g><path d="m30 24v8c0 1.1-.9 2-2 2h-2v6.67c0 .73-.6 1.33-1.33 1.33-.42 0-.82-.2-1.07-.53l-5.6-7.47h-14c-1.1 0-2-.9-2-2v-18c0-1.1.9-2 2-2h24c1.1 0 2 .9 2 2z" fill="#e6e9ed"/></g><g><path d="m22 20h4v10h-4z" fill="#ff826e"/></g><g><path d="m14 16h4v14h-4z" fill="#ff826e"/></g><g><path d="m6 24h4v6h-4z" fill="#ff826e"/></g><g><path d="m50 45v13c0 2.21-1.79 4-4 4s-4-1.79-4-4v-13c0-.55.45-1 1-1h1 4 1c.55 0 1 .45 1 1z" fill="#969faa"/></g><g><path d="m48 39.88v4.12h-4v-4.12c.66.08 1.32.12 2 .12s1.34-.04 2-.12z" fill="#ccd1d9"/></g><g><circle cx="46" cy="24" fill="#dfb28b" r="16"/></g><g><circle cx="46" cy="24" fill="#69d6f4" r="12"/></g><g><path d="m50 24v4h-8v-4h2 4z" fill="#aab2bd"/></g><g><path d="m42 28h8c0 2.21-1.79 4-4 4s-4-1.79-4-4z" fill="#aab2bd"/></g><g><path d="m55.99 11.5c-.27-5.29-4.64-9.5-9.99-9.5s-9.72 4.21-9.99 9.5c-.01.16-.01.33-.01.5 0 1.64.37 2.98.94 4.14 1.49 3.1 4.33 4.95 5.06 7.86h2 4 2c.73-2.91 3.57-4.76 5.06-7.86.57-1.16.94-2.5.94-4.14 0-.17 0-.34-.01-.5z" fill="#ffeaa7"/></g><g><path d="m44 12v2h-2c-1.1 0-2-.9-2-2 0-.55.22-1.05.59-1.41.36-.37.86-.59 1.41-.59s1.05.22 1.41.59c.37.36.59.86.59 1.41z" fill="#fcd770"/></g><g><path d="m51.41 10.59c.37.36.59.86.59 1.41s-.22 1.05-.59 1.41c-.36.37-.86.59-1.41.59h-2v-2c0-1.1.9-2 2-2 .55 0 1.05.22 1.41.59z" fill="#fcd770"/></g></g><g><path d="m63 24c0-5.04-2.208-9.736-6.05-12.98-.498-5.607-5.215-10.02-10.95-10.02s-10.452 4.413-10.95 10.02c-1.684 1.422-3.045 3.124-4.05 5.014v-2.034c0-1.654-1.346-3-3-3h-24c-1.654 0-3 1.346-3 3v18c0 1.654 1.346 3 3 3h13.5l5.299 7.066c.438.584 1.136.934 1.868.934 1.286 0 2.333-1.047 2.333-2.333v-5.667h1c1.654 0 3-1.346 3-3v-.017c2.411 4.513 6.8 7.804 12 8.736v2.281c-1.103 0-2 .897-2 2v13c0 2.757 2.243 5 5 5s5-2.243 5-5v-13c0-1.103-.897-2-2-2v-2.281c7.946-1.423 14-8.37 14-16.719zm-24.359-3.641c1.072 1.304 1.992 2.438 2.359 3.801v3.84c0 2.757 2.243 5 5 5s5-2.243 5-5v-3.84c.367-1.363 1.287-2.497 2.359-3.801.611-.744 1.249-1.528 1.82-2.402 1.176 1.786 1.821 3.881 1.821 6.043 0 6.065-4.935 11-11 11s-11-4.935-11-11c0-2.162.645-4.258 1.821-6.043.57.875 1.208 1.658 1.82 2.402zm4.359-7.359h-1c-.551 0-1-.448-1-1s.449-1 1-1 1 .448 1 1zm4 10h-2v-8h2zm2 2v2h-6v-2zm-.184 4c-.414 1.161-1.514 2-2.816 2s-2.402-.839-2.816-2zm-2.816-26c4.962 0 9 4.037 9 9 0 3.211-1.62 5.183-3.186 7.09-.981 1.193-1.986 2.424-2.544 3.91h-.27v-8h1c1.654 0 3-1.346 3-3s-1.346-3-3-3-3 1.346-3 3v1h-2v-1c0-1.654-1.346-3-3-3s-3 1.346-3 3 1.346 3 3 3h1v8h-.27c-.557-1.487-1.563-2.717-2.544-3.91-1.566-1.907-3.186-3.879-3.186-7.09 0-4.963 4.038-9 9-9zm3 10v-1c0-.552.449-1 1-1s1 .448 1 1-.449 1-1 1zm-20 19c0 .552-.449 1-1 1h-3v7.667c0 .288-.426.431-.6.2l-5.9-7.867h-14.5c-.551 0-1-.448-1-1v-18c0-.552.449-1 1-1h24c.551 0 1 .448 1 1zm2-8c0-3.893 1.495-7.552 4.138-10.326.131.845.35 1.613.639 2.315-1.788 2.281-2.777 5.096-2.777 8.011 0 7.168 5.832 13 13 13s13-5.832 13-13c0-2.915-.989-5.73-2.778-8.011.289-.701.508-1.47.639-2.315 2.644 2.774 4.139 6.433 4.139 10.326 0 8.271-6.729 15-15 15s-15-6.729-15-15zm18 34c0 1.654-1.346 3-3 3s-3-1.346-3-3v-13h6zm-2-15h-2v-2.051c.333.02.662.051 1 .051s.667-.031 1-.051z"/><path d="m21 29h-2v-14h-6v14h-2v-6h-6v8h22v-12h-6zm-12 0h-2v-4h2zm6-12h2v12h-2zm8 4h2v8h-2z"/></g></g></svg>