<svg id="_x33_0" enable-background="new 0 0 64 64" height="512" viewBox="0 0 64 64" width="512" xmlns="http://www.w3.org/2000/svg"><g><g><g><path d="m9.12 10.88c.54.54.88 1.29.88 2.12s-.34 1.58-.88 2.12-1.29.88-2.12.88c-.34 0-.68-.03-1-.1v-5.9h1c.83 0 1.58.34 2.12.88z" fill="#5b6570"/></g><g><path d="m10 13v41 1c0 1.66-1.34 3-3 3-1.38 0-2.63-.56-3.54-1.46-.9-.91-1.46-2.16-1.46-3.54v-42c0 1.38.56 2.63 1.46 3.54.68.68 1.56 1.16 2.54 1.36.32.07.66.1 1 .1.83 0 1.58-.34 2.12-.88s.88-1.29.88-2.12z" fill="#838f9b"/></g><g><path d="m62 17-11-11h9c1.105 0 2 .895 2 2z" fill="#e6e9ed"/></g><g><path d="m60 54h-50v-41c0-.83-.34-1.58-.88-2.12s-1.29-.88-2.12-.88h-1v5.9c-.98-.2-1.86-.68-2.54-1.36-.9-.91-1.46-2.16-1.46-3.54 0-2.76 2.24-5 5-5h38l17 17v29c0 1.1-.9 2-2 2z" fill="#e6e9ed"/></g><g><path d="m62 17v6l-17-17h6z" fill="#ff826e"/></g><g><path d="m51 36c3.87 0 7 3.13 7 7s-3.13 7-7 7-7-3.13-7-7 3.13-7 7-7z" fill="#ffc729"/></g><g><circle cx="51" cy="43" fill="#fcd770" r="3"/></g><g><path d="m58 26v6h-10v-4h4v-2z" fill="#b4dd7f"/></g><g><path d="m52 26v2h-4-2v-6h6z" fill="#ff826e"/></g></g><g><path d="m60 5h-53c-3.309 0-6 2.691-6 6v42c0 3.309 2.691 6 6 6 2.206 0 4-1.794 4-4h49c1.654 0 3-1.346 3-3v-44c0-1.654-1.346-3-3-3zm1 15.586-13.586-13.586h3.172l10.414 10.414zm0-12.586v6.586l-7.586-7.586h6.586c.551 0 1 .449 1 1zm-54 49c-2.206 0-4-1.794-4-4v-37.54c1.063.954 2.462 1.54 4 1.54.732 0 1.409-.212 2-.556v38.556c0 1.103-.897 2-2 2zm0-42v-4c1.103 0 2 .897 2 2s-.897 2-2 2zm53 38h-49v-40c0-2.206-1.794-4-4-4h-2v5.463c-1.195-.692-2-1.985-2-3.463 0-2.206 1.794-4 4-4h37.586l16.414 16.414v28.586c0 .551-.449 1-1 1z"/><path d="m43 11h-30v2h28v2h-28v2h30z"/><path d="m13 19h6v2h-6z"/><path d="m21 19h22v2h-22z"/><path d="m13 23h30v2h-30z"/><path d="m53 21h-8v8h2v4h12v-8h-6zm-6 2h4v4h-4zm10 4v4h-8v-2h4v-2z"/><path d="m13 27h30v2h-30z"/><path d="m41 31h2v2h-2z"/><path d="m37 31h2v2h-2z"/><path d="m33 31h2v2h-2z"/><path d="m13 31h18v2h-18z"/><path d="m51 39c-2.206 0-4 1.794-4 4s1.794 4 4 4 4-1.794 4-4-1.794-4-4-4zm0 6c-1.103 0-2-.897-2-2s.897-2 2-2 2 .897 2 2-.897 2-2 2z"/><path d="m51 35c-4.411 0-8 3.589-8 8s3.589 8 8 8 8-3.589 8-8-3.589-8-8-8zm0 14c-3.309 0-6-2.691-6-6s2.691-6 6-6 6 2.691 6 6-2.691 6-6 6z"/><path d="m34.681 41c-.956 0-1.873.351-2.583.959l-1.349-2.698c-.698-1.395-2.1-2.261-3.659-2.261-2.255 0-4.09 1.835-4.09 4.09v4.006c0 2.153-1.751 3.904-3.903 3.904h-3.097v2h3.097c3.255 0 5.903-2.648 5.903-5.903v-4.007c0-1.153.938-2.09 2.09-2.09.797 0 1.513.443 1.869 1.155l1.81 3.619-1.292 2.153c-.312.521-.477 1.117-.477 1.724 0 1.847 1.502 3.349 3.382 3.349 1.444 0 2.618-1.174 2.618-2.618 0-.404-.096-.809-.276-1.171l-1.673-3.346c.364-.536.978-.865 1.63-.865.956 0 1.801.609 2.104 1.516l2.267 6.8 1.897-.633-2.267-6.8c-.575-1.724-2.183-2.883-4.001-2.883zm-2.332 8c-.744 0-1.349-.605-1.349-1.349 0-.245.066-.485.192-.694l.637-1.062 1.105 2.21c.044.086.066.182.066.277 0 .341-.277.618-.651.618z"/></g></g></svg>