<svg id="_x33_0" enable-background="new 0 0 64 64" height="512" viewBox="0 0 64 64" width="512" xmlns="http://www.w3.org/2000/svg"><g><g><g><path d="m58 58v3c0 .55-.45 1-1 1h-54c-.55 0-1-.45-1-1v-3z" fill="#ccd1d9"/></g><g><path d="m22 44h12v4h-12z" fill="#e6e9ed"/></g><g><path d="m58 44v14h-56v-19c0-.55.45-1 1-1h11.68c.19 1.33.36 2.67.5 4h-7.18c-.55 0-1.05.22-1.41.59-.37.36-.59.86-.59 1.41 0 1.1.9 2 2 2h2c.55 0 1.05.22 1.41.59.37.36.59.86.59 1.41s-.22 1.05-.59 1.41c-.36.37-.86.59-1.41.59s-1.05.22-1.41.59c-.37.36-.59.86-.59 1.41 0 1.1.9 2 2 2h35c.83 0 1.58-.34 2.12-.88s.88-1.29.88-2.12c0-1.66-1.34-3-3-3h-5v-4z" fill="#e6e9ed"/></g><g><path d="m53.57 23.96c-.18.03-.38.04-.57.04-1.64 0-3.09-.8-4-2.03-.62.84-1.49 1.48-2.5 1.79-.47.16-.98.24-1.5.24-2.46 0-4.5-1.78-4.91-4.13-.35.08-.72.13-1.09.13-2.76 0-5-2.24-5-5 0-1.78.94-3.33 2.34-4.22-.21-.55-.34-1.15-.34-1.78 0-2.76 2.24-5 5-5 .63 0 1.23.13 1.78.34.89-1.4 2.44-2.34 4.22-2.34 2.16 0 3.98 1.37 4.68 3.29.88-.79 2.04-1.29 3.32-1.29 2.76 0 5 2.24 5 5 0 .63-.13 1.23-.34 1.78 1.4.89 2.34 2.44 2.34 4.22 0 2.45-1.77 4.48-4.09 4.91-.4 2.14-2.15 3.8-4.34 4.05z" fill="#b4dd7f"/></g><g><path d="m53.98 28c.02.27.02.55.02.82 0 1.07-.07 2.13-.21 3.18-.3 2.45-.96 4.84-1.95 7.09l-.54-.1c-3.24-.61-6.19-2.27-8.39-4.73 1.58-2.63 2.68-5.52 3.24-8.56l.35-1.93v-.01c1.01-.31 1.88-.95 2.5-1.79.91 1.23 2.36 2.03 4 2.03.19 0 .39-.01.57-.04v.01l.17 1.23c.13.93.22 1.87.24 2.8z" fill="#cf9e76"/></g><g><path d="m42.91 34.26c2.2 2.46 5.15 4.12 8.39 4.73l.54.1 8.82 1.66c.78.14 1.34.82 1.34 1.61 0 .91-.73 1.64-1.64 1.64h-2.36-18v4c0 1.1-.9 2-2 2h-2c-1.1 0-2-.9-2-2v-4h-12v4c0 1.1-.9 2-2 2h-2.19c-1.03 0-1.89-.78-1.99-1.8l-.47-4.67c-.05-.51-.1-1.02-.17-1.53-.14-1.33-.31-2.67-.5-4-.98-6.95-2.5-13.83-4.54-20.55-.6.35-1.29.55-2.02.55h-3.29c-1.56 0-2.83-1.27-2.83-2.83 0-.75.3-1.47.83-2l3.64-3.64c.98-.98 2.31-1.53 3.7-1.53 1.14 0 2.21.37 3.09 1.01.88.65 1.55 1.56 1.89 2.65l4.85 15.34 4.52-.75c.98-.17 1.98-.25 2.98-.25 2.7 0 5.32.6 7.7 1.71 2.38 1.12 4.52 2.75 6.24 4.82l1.11 1.32c.12.14.23.28.36.41z" fill="#b4dd7f"/></g><g><path d="m45 48c1.66 0 3 1.34 3 3 0 .83-.34 1.58-.88 2.12s-1.29.88-2.12.88h-35c-1.1 0-2-.9-2-2 0-.55.22-1.05.59-1.41.36-.37.86-.59 1.41-.59s1.05-.22 1.41-.59c.37-.36.59-.86.59-1.41s-.22-1.05-.59-1.41c-.36-.37-.86-.59-1.41-.59h-2c-1.1 0-2-.9-2-2 0-.55.22-1.05.59-1.41.36-.37.86-.59 1.41-.59h7.18c.07.51.12 1.02.17 1.53l.47 4.67c.1 1.02.96 1.8 1.99 1.8h2.19c1.1 0 2-.9 2-2h12c0 1.1.9 2 2 2h2c1.1 0 2-.9 2-2z" fill="#69d6f4"/></g></g><g><path d="m60.847 39.767-7.617-1.428c1.173-3.044 1.77-6.242 1.77-9.523 0-1.251-.09-2.514-.267-3.753l-.046-.319c1.915-.564 3.46-2.051 4.048-4.008 2.507-.754 4.265-3.069 4.265-5.736 0-1.8-.8-3.473-2.173-4.606.115-.464.173-.931.173-1.394 0-3.309-2.691-6-6-6-1.037 0-2.051.276-2.95.792-1.085-1.709-2.986-2.792-5.05-2.792-1.8 0-3.473.8-4.606 2.173-.464-.115-.931-.173-1.394-.173-3.309 0-6 2.691-6 6 0 .463.058.93.173 1.394-1.373 1.133-2.173 2.806-2.173 4.606 0 3.424 2.9 6.215 6.349 5.989.828 2.373 3.07 4.011 5.651 4.011.089 0 .173-.02.261-.024l-.099.545c-.446 2.455-1.279 4.793-2.436 6.987l-.517-.62c-3.648-4.377-9.009-6.888-14.708-6.888-1.052 0-2.111.088-3.147.261l-3.662.61-4.584-14.517c-.822-2.604-3.21-4.354-5.941-4.354-1.665 0-3.229.648-4.406 1.825l-3.639 3.639c-.724.724-1.122 1.685-1.122 2.707 0 2.112 1.717 3.829 3.829 3.829h3.289c.474 0 .931-.077 1.371-.202 1.758 5.958 3.115 12.052 4.04 18.202h-10.529c-1.103 0-2 .897-2 2v22c0 1.103.897 2 2 2h54c1.103 0 2-.897 2-2v-16h1.36c1.456 0 2.64-1.185 2.64-2.64 0-1.269-.905-2.36-2.153-2.593zm-19.774-20.068-.182-1.029-1.02.227c-.31.069-.595.103-.871.103-2.206 0-4-1.794-4-4 0-1.372.701-2.633 1.875-3.375l.693-.438-.293-.765c-.182-.477-.275-.955-.275-1.422 0-2.672 2.693-4.769 5.422-3.725l.765.293.438-.693c.742-1.174 2.003-1.875 3.375-1.875 1.661 0 3.164 1.058 3.741 2.631l.507 1.384 1.099-.983c.743-.665 1.686-1.032 2.653-1.032 2.206 0 4 1.794 4 4 0 .467-.093.945-.275 1.422l-.293.765.693.438c1.174.742 1.875 2.003 1.875 3.375 0 1.925-1.376 3.576-3.273 3.925l-.678.125-.125.678c-.348 1.896-1.999 3.272-3.924 3.272-1.263 0-2.429-.592-3.198-1.625l-.802-1.076-.802 1.076c-.769 1.033-1.935 1.625-3.198 1.625-1.937 0-3.589-1.388-3.927-3.301zm6.056 6.18.253-1.393c.585-.257 1.136-.592 1.617-1.03 1.018.925 2.314 1.447 3.7 1.517l.053.372c.078.548.135 1.101.177 1.655h-3.929v2h3.995c-.005.671-.039 1.338-.098 2h-3.897v2h3.636c-.292 1.69-.763 3.344-1.409 4.951-2.693-.559-5.169-1.898-7.099-3.842 1.45-2.564 2.472-5.322 3.001-8.23zm-24.129 19.121h10v2h-10zm-.184 4h10.369c.414 1.161 1.514 2 2.816 2h2c1.302 0 2.402-.839 2.816-2h4.183c1.103 0 2 .897 2 2s-.897 2-2 2h-35c-.551 0-1-.448-1-1s.449-1 1-1c1.654 0 3-1.346 3-3s-1.346-3-3-3h-2c-.551 0-1-.448-1-1s.449-1 1-1h6.287c.022.211.05.422.071.634l.466 4.665c.155 1.54 1.439 2.701 2.986 2.701h2.19c1.302 0 2.402-.839 2.816-2zm-19.816 12v-2h54v2zm54-4h-54v-18h10.804c.09.666.178 1.333.258 2h-6.062c-1.654 0-3 1.346-3 3s1.346 3 3 3h2c.551 0 1 .448 1 1s-.449 1-1 1c-1.654 0-3 1.346-3 3s1.346 3 3 3h35c2.206 0 4-1.794 4-4s-1.794-4-4-4h-4v-2h16zm3.36-14h-19.36v-2h-2v7c0 .552-.449 1-1 1h-2c-.551 0-1-.448-1-1v-4.764c0-1.76-.978-3.343-2.553-4.131l-.895 1.789c.82.41 1.333 1.206 1.414 2.105h-9.966v-2h-2v7c0 .552-.449 1-1 1h-2.19c-.516 0-.944-.387-.995-.9l-.466-4.665c-.865-8.651-2.57-17.255-5.055-25.59.705-.583 1.262-1.35 1.567-2.263l.088-.265-1.897-.633-.088.265c-.41 1.228-1.554 2.052-2.847 2.052h-3.288c-1.009 0-1.829-.82-1.829-1.829 0-.488.19-.947.536-1.293l3.639-3.639c.799-.799 1.862-1.239 2.992-1.239 1.854 0 3.476 1.188 4.034 2.957l4.702 14.887-1.734 2.601 1.664 1.109 1.76-2.64 4.091-.682c.927-.153 1.876-.232 2.817-.232 5.104 0 9.904 2.249 13.171 6.169l1.105 1.326c2.376 2.852 5.694 4.798 9.343 5.481l9.358 1.755c.303.058.522.322.522.629 0 .353-.287.64-.64.64z"/><circle cx="10" cy="12" r="1"/></g></g></svg>