<svg id="_x33_0" enable-background="new 0 0 64 64" height="512" viewBox="0 0 64 64" width="512" xmlns="http://www.w3.org/2000/svg"><g><g><g><path d="m57.45 2.89c-.28-.54-.84-.89-1.45-.89s-1.17.35-1.45.89l-4.55 9.11h12z" fill="#aab2bd"/></g><g><path d="m62 54v2c0 3.31-2.69 6-6 6-1.66 0-3.16-.67-4.24-1.76-1.09-1.08-1.76-2.58-1.76-4.24v-2z" fill="#aab2bd"/></g><g><path d="m62 50v4h-12v-4h6z" fill="#ffeaa7"/></g><g><path d="m62 12v38h-6v-9-2-2-2-2-2-19z" fill="#fcd770"/></g><g><path d="m56 41v9h-6v-38h6v19 2 2 2 2z" fill="#b4dd7f"/></g><g><path d="m39 54c0 1.32.31 2.61.89 3.79l.11.21h-24v-4h-6v4h-4c-1.1 0-2.1-.45-2.83-1.17-.72-.73-1.17-1.73-1.17-2.83 0-2.21 1.79-4 4-4h2 32l-.11.21c-.58 1.18-.89 2.47-.89 3.79z" fill="#f0d0b4"/></g><g><path d="m6 50c-2.21 0-4 1.79-4 4v-48c0-2.21 1.79-4 4-4h2v48z" fill="#d3a06c"/></g><g><path d="m44 4v44c0 1.1-.9 2-2 2h-2-32v-48h34c1.1 0 2 .9 2 2z" fill="#cf9e76"/></g><g><path d="m16 58v2.59c0 .78-.63 1.41-1.41 1.41-.38 0-.74-.15-1-.41l-3.59-3.59v-4h6z" fill="#e6e9ed"/></g><g><path d="m28 22h10v10h-10z" fill="#e6e9ed"/></g><g><path d="m28 8h10v10h-10z" fill="#e6e9ed"/></g><g><path d="m14 22h10v10h-10z" fill="#e6e9ed"/></g><g><path d="m14 8h10v10h-10z" fill="#e6e9ed"/></g><g><path d="m38 18v4h-10v10h-4v-10h-10v-4h10v-10h4v10z" fill="#ff826e"/></g></g><g><path d="m58.342 2.448c-.446-.893-1.343-1.448-2.342-1.448s-1.896.555-2.342 1.447l-4.658 9.317v44.236c0 3.86 3.14 7 7 7s7-3.14 7-7v-44.236zm2.658 48.552v2h-10v-2zm-4-2v-8h-2v8h-4v-36h4v18h2v-18h4v36zm-5.382-38 2-4h4.764l2 4zm4.935-7.658.829 1.658h-2.764l.829-1.659c.211-.421.895-.421 1.106.001zm-.553 57.658c-2.757 0-5-2.243-5-5v-1h10v1c0 2.757-2.243 5-5 5z"/><path d="m55 33h2v2h-2z"/><path d="m55 37h2v2h-2z"/><path d="m25 53h2v2h-2z"/><path d="m37 41h2v2h-2z"/><path d="m27 41h8v2h-8z"/><path d="m27 37h12v2h-12z"/><path d="m23 41h2v2h-2z"/><path d="m13 41h8v2h-8z"/><path d="m13 37h12v2h-12z"/><path d="m42 1h-36c-2.757 0-5 2.243-5 5v48c0 2.757 2.243 5 5 5h3.586l3.293 3.293c.456.456 1.062.707 1.707.707 1.331 0 2.414-1.083 2.414-2.414v-1.586h24.618l-.829-1.658c-.516-1.032-.789-2.188-.789-3.342 0-1.03.229-2.056.643-3h1.357c1.654 0 3-1.346 3-3v-44c0-1.654-1.346-3-3-3zm-39 5c0-1.654 1.346-3 3-3h1v46h-1c-1.125 0-2.164.374-3 1.002zm11.293 54.879-3.293-3.293v-2.586h4v5.586c0 .338-.468.531-.707.293zm23.766-7.879h-9.059v2h9.06c.073.679.212 1.352.429 2h-21.489v-2h6v-2h-16v2h2v2h-3c-1.654 0-3-1.346-3-3s1.346-3 3-3h32.5c-.217.649-.368 1.32-.441 2zm4.941-5c0 .551-.449 1-1 1h-33v-46h33c.551 0 1 .449 1 1z"/><path d="m13 33h26v-26h-26zm16-8.586 6.586 6.586h-6.586zm1.414-1.414h6.586v6.586zm6.586-6h-6.586l6.586-6.586zm-8-1.414v-6.586h6.586zm8 3.414v2h-10v10h-2v-10h-10v-2h10v-10h2v10zm-14 12h-6.586l6.586-6.586zm0-15.414-6.586-6.586h6.586zm-1.414 1.414h-6.586v-6.586zm-6.586 6h6.586l-6.586 6.586z"/></g></g></svg>