<svg id="_x33_0" enable-background="new 0 0 64 64" height="512" viewBox="0 0 64 64" width="512" xmlns="http://www.w3.org/2000/svg"><g><g><g><path d="m41 2h-36c-1.66 0-3 1.34-3 3v54c0 1.66 1.34 3 3 3h36c1.31 0 2.42-.83 2.82-2 .12-.31.18-.65.18-1v-54c0-1.66-1.34-3-3-3z" fill="#969faa"/></g><g><path d="m60.13 34c-.72-1.46-1.64-2.8-2.71-4h-13.42v29c0 .35-.06.69-.18 1h.01.17c7.06 0 13.18-4.07 16.12-10 1.2-2.41 1.88-5.12 1.88-8 0-2.87-.67-5.59-1.87-8z" fill="#4fc1e9"/></g><g><circle cx="22" cy="56" fill="#e6e9ed" r="2"/></g><g><path d="m40 33.87v15.13c0 .55-.45 1-1 1h-32c-.55 0-1-.45-1-1v-30l6-4 4 2.67v4.33h-6v12h12v-8h6v-14h-10v-6h16c-1.1 0-2 .9-2 2v20c0 1.1.9 2 2 2h4v2.59c0 .78.63 1.41 1.41 1.41.21 0 .41-.04.59-.13z" fill="#69d6f4"/></g><g><path d="m22 26v8h-12v-12h6v4z" fill="#ff826e"/></g><g><path d="m28 12v14h-6-6v-4-4.33l2 1.33v-7z" fill="#b4dd7f"/></g><g><path d="m7 6h11v6 7l-2-1.33-4-2.67-6 4v-12c0-.55.45-1 1-1z" fill="#fcd770"/></g><g><path d="m62 8v20c0 1.1-.9 2-2 2h-2.58-8.58-4.84l-3.59 3.59c-.12.12-.26.22-.41.28-.18.09-.38.13-.59.13-.78 0-1.41-.63-1.41-1.41v-2.59h-4c-1.1 0-2-.9-2-2v-20c0-1.1.9-2 2-2h10 16c1.1 0 2 .9 2 2z" fill="#e6e9ed"/></g><g><path d="m51.15 16.47c.53.33.85.91.85 1.53s-.32 1.2-.85 1.53l-6.77 4.23c-.25.16-.53.24-.83.24-.85 0-1.55-.7-1.55-1.55v-8.9c0-.85.7-1.55 1.55-1.55.3 0 .58.08.83.24z" fill="#ff826e"/></g></g><g><path d="m22 53c-1.654 0-3 1.346-3 3s1.346 3 3 3 3-1.346 3-3-1.346-3-3-3zm0 4c-.551 0-1-.448-1-1s.449-1 1-1 1 .448 1 1-.449 1-1 1z"/><path d="m35 45h2v2h-2z"/><path d="m31 45h2v2h-2z"/><path d="m27 45h2v2h-2z"/><path d="m9 45h16v2h-16z"/><path d="m9 41h28v2h-28z"/><path d="m29 37h8v2h-8z"/><path d="m9 37h18v2h-18z"/><path d="m63 28v-20c0-1.654-1.346-3-3-3h-15c0-2.206-1.794-4-4-4h-36c-2.206 0-4 1.794-4 4v54c0 2.206 1.794 4 4 4h36c1.483 0 2.766-.821 3.456-2.023 10.265-.246 18.544-8.654 18.544-18.977 0-3.97-1.247-7.8-3.523-11h.523c1.654 0 3-1.346 3-3zm-3-21c.551 0 1 .448 1 1v20c0 .552-.449 1-1 1h-16.414l-3.878 3.878c-.241.242-.708.045-.708-.292v-3.586h-5c-.551 0-1-.448-1-1v-20c0-.552.449-1 1-1zm.954 34h-7.986c-.078-2.059-.396-4.063-.952-6h7.461c.851 1.882 1.354 3.911 1.477 6zm-15.954 10h4.185c-1.275 3.023-2.956 5.245-4.185 6.612zm0-2v-6h5.958c-.094 2.211-.477 4.218-1.042 6zm7.959-6h7.991c-.125 2.129-.635 4.151-1.475 6h-7.457c.514-1.802.857-3.803.941-6zm-1.99-2h-5.969v-6h4.929c.608 1.93.955 3.934 1.04 6zm-5.969-8v-2h3.238c.352.656.676 1.322.961 2zm-24-6v6h-10v-10h4v4zm-4-2v-5.465l2 1.333v-7.868h8v12zm0-7.868-4-2.667v-5.465h-2v5.465l-4 2.667v-10.132h10zm-10 2.403 5-3.333 3 2v2.798h-6v14h14v-8h6v-16h-10v-4h12.171c-.11.313-.171.649-.171 1v20c0 1.654 1.346 3 3 3h3v1.586c0 1.19.865 2.182 2 2.379v14.035h-32zm34 41.465h-36c-1.103 0-2-.897-2-2v-54c0-1.103.897-2 2-2h36c1.103 0 2 .897 2 2h-36c-1.103 0-2 .897-2 2v42c0 1.103.897 2 2 2h32c1.103 0 2-.897 2-2v-14.594c.042-.036.082-.074.121-.113l1.879-1.879v26.586c0 1.103-.897 2-2 2zm5.679-2.232c1.446-1.629 3.338-4.242 4.678-7.768h7.039c-2.556 4.073-6.782 6.981-11.717 7.768zm11.736-25.768h-7.066c-.258-.675-.535-1.344-.853-2h6.448c.539.635 1.034 1.301 1.471 2z"/><path d="m43.554 25c.479 0 .947-.134 1.354-.389l6.774-4.233c.825-.516 1.318-1.405 1.318-2.378s-.493-1.862-1.318-2.378l-6.774-4.234c-.407-.254-.875-.388-1.354-.388-1.408 0-2.554 1.146-2.554 2.555v8.891c0 1.408 1.146 2.554 2.554 2.554zm-.554-11.445c0-.306.249-.555.554-.555.104 0 .206.029.294.084l6.774 4.233c.237.149.378.404.378.683s-.142.534-.378.683l-6.774 4.232c-.348.219-.848-.061-.848-.47z"/><path d="m25 33h10v2h-10z"/><path d="m25 29h4v2h-4z"/></g></g></svg>